<?xml version="1.0" encoding="UTF-8" standalone="no"?><!DOCTYPE svg PUBLIC "-//W3C//DTD SVG 1.1//EN" "http://www.w3.org/Graphics/SVG/1.1/DTD/svg11.dtd"><svg width="100%" height="100%" viewBox="0 0 232 232" version="1.1" xmlns="http://www.w3.org/2000/svg" xmlns:xlink="http://www.w3.org/1999/xlink" xml:space="preserve" xmlns:serif="http://www.serif.com/" style="fill-rule:evenodd;clip-rule:evenodd;stroke-linecap:round;stroke-linejoin:round;stroke-miterlimit:1.5;"><g id="_2-Triebwerke" serif:id="2 Triebwerke"></g><g id="_1-Triebwerk" serif:id="1 Triebwerk"></g><path d="M114.602,128.826l-42.496,0c-3.471,0 -19.727,-1.361 -35.6,-3.58c-5.531,8.086 -21.47,31.363 -21.862,31.662c-0.546,0.415 -8.421,-0.156 -8.421,-0.156l7.851,-35.548c-6.639,-1.643 -11.077,-3.469 -11.077,-5.392c-0,-1.923 4.437,-3.749 11.074,-5.392l-7.848,-35.537c0,0 7.875,-0.571 8.421,-0.156c0.392,0.298 16.317,23.556 21.855,31.651c15.875,-2.219 32.136,-3.581 35.607,-3.581l42.496,-0l0.107,-16.773c-7.053,-0.491 -7.48,-1.26 0.015,-2.496l0.023,-3.613c-4.398,-0.429 -4.662,-0.861 0.013,-1.941l0.013,-2.076l-3.21,-10.773c-7.052,-0.49 -8.234,-1.242 -0.738,-2.477l-6.421,-21.554c-7.052,-0.49 -8.235,-1.249 -0.74,-2.484l-8.541,-28.669c0,0 -2.305,-0.442 -3.176,-0.566c-3.539,-0.508 -1.638,-1.023 3.16,-1.111c2.16,-0.039 8.123,-0.198 8.558,0.125c0.415,0.308 19.83,39.385 33.598,67.16c1.106,-0.053 2.252,-0.18 3.442,-0.367c0.614,-0.817 1.709,-1.32 2.657,-1.709c2.791,-1.144 12.32,-0.92 15.676,-0c1.475,0.404 3.138,1.406 3.138,3.138l-0,6.275c-0,1.732 -1.69,2.658 -3.138,3.138c-2.604,0.863 -11.203,1.346 -15.676,-0c-0.373,-0.113 -0.76,-0.259 -1.129,-0.444c5.052,10.201 8.519,17.217 8.519,17.217l40.819,-0c13.439,-0.202 37.027,5.226 37.027,12.409c-0,7.183 -22.58,14.024 -37.027,13.62l-40.831,0c-0.22,0.446 -3.622,7.326 -8.507,17.189c0.369,-0.185 0.756,-0.331 1.129,-0.444c4.473,-1.346 13.072,-0.863 15.676,0c1.448,0.48 3.138,1.406 3.138,3.138l-0,6.275c-0,1.732 -1.663,2.734 -3.138,3.138c-3.356,0.92 -12.885,1.144 -15.676,-0c-0.948,-0.389 -2.043,-0.892 -2.657,-1.709c-1.19,-0.187 -2.336,-0.314 -3.442,-0.367c-13.768,27.775 -33.183,66.852 -33.598,67.16c-0.435,0.323 -6.398,0.164 -8.558,0.125c-4.798,-0.088 -6.699,-0.603 -3.16,-1.111c0.871,-0.125 3.176,-0.566 3.176,-0.566l8.541,-28.669c-7.495,-1.236 -6.312,-1.994 0.74,-2.485l6.421,-21.553c-7.496,-1.235 -6.314,-1.987 0.738,-2.477l3.21,-10.774l-0.013,-2.075c-4.675,-1.08 -4.411,-1.512 -0.013,-1.941l-0.023,-3.614c-7.495,-1.235 -7.068,-2.004 -0.015,-2.495l-0.107,-16.745Z" style="fill:none;stroke:#000;stroke-width:1.7px;"/><rect x="0" y="0" width="231.595" height="231.595" style="fill:none;"/></svg>