<?xml version="1.0" encoding="utf-8"?>
<!-- Generator: Adobe Illustrator 18.0.0, SVG Export Plug-In . SVG Version: 6.00 Build 0)  -->
<!DOCTYPE svg PUBLIC "-//W3C//DTD SVG 1.1//EN" "http://www.w3.org/Graphics/SVG/1.1/DTD/svg11.dtd">
<svg version="1.1" id="Слой_1" xmlns="http://www.w3.org/2000/svg" xmlns:xlink="http://www.w3.org/1999/xlink" x="0px" y="0px"
	 viewBox="135 0 798 768" enable-background="new 135 0 798 768" xml:space="preserve">
<path fill="none" stroke="#000000" stroke-width="2" stroke-miterlimit="10" d="M151.7,388c0,1.6,30.9,9.5,30.9,9.5l-29.8,100.3
	c-1.2,5.2,4.9,6.4,4.9,6.4l17.2-0.4c9.2-1.6,15.6-8.4,15.6-8.4l59.2-86.4c15.3,7.7,169.7,13.4,240.6,16c33.2,1.2,34.8,3.6,34.8,3.6
	c0.7,4-2.8,35-4,44.9c-0.1,0-0.2,0.4-0.3,0.4h-14.2c-2.7,0-4.9,2.2-4.9,4.9c0,2.7,2.2,4.9,4.9,4.9h12.2c-2.7,8.7-7.3,22-11.9,34.8
	c-0.7-0.6-1.6-1-2.5-1h-8.7c-2.1,0-3.8,1.7-3.8,3.8c0,2.1,1.7,3.8,3.8,3.8h8.7c0.1,0,0.1,0,0.2,0c-5.4,14.8-10.2,28.3-11.2,30.5
	h-11.8c-2.7,0-4.9,2.2-4.9,4.9s2.2,4.9,4.9,4.9h8.4c-3.5,9.8-7.6,21.1-12.1,32.9c-0.4-0.2-0.8-0.2-1.2-0.2h-8.7
	c-1.8,0-3.3,1.5-3.3,3.3c0,1.8,1.5,3.3,3.3,3.3h7.5c-2.5,6.5-5,13.1-7.6,19.6h-7c-2.7,0-4.9,2.2-4.9,4.9s2.2,4.9,4.9,4.9h3.1
	C440.3,694,414,754.4,414,754.4c-5.2,12.4,11.6,8.3,11.6,8.3c22.4-9.2,34.5-22.4,34.5-22.4l143-228.6c0.7,0.9,5.6,7.3,8.6,7.9
	l48.3,0.3c0,0,5.2-3.2,5.2-4.8l-0.3-27.7c0,0-3.9-3.5-6.1-4.2l-37.1-1.2l31.2-49.9c6.8-6.8,14.2-6.8,14.2-6.8l171.7-1.1
	c75.3-11.1,84.8-35.3,84.8-35.3c2-7.5,0-9.5,0-9.5s-9.5-24.2-84.8-35.3L667,343c0,0-7.4,0-14.2-6.8l-31.2-49.9l37.1-1.2
	c2.3-0.6,6.1-4.2,6.1-4.2l0.3-27.7c0-1.6-5.2-4.8-5.2-4.8l-48.3,0.3c-3,0.6-7.9,7-8.6,7.9L460.1,28c0,0-12.1-13-34.5-22.2
	c0,0-16.8-3.5-11.6,8.9c0,0,26.3,61.4,49.9,121.3h-3.1c-2.7,0-4.9,2.2-4.9,4.9c0,2.7,2.2,4.9,4.9,4.9h7c2.6,6.5,5.2,13.1,7.6,19.6
	h-7.5c-1.8,0-3.3,1.5-3.3,3.3s1.5,3.3,3.3,3.3h8.7c0.4,0,0.8-0.1,1.2-0.2c4.5,11.9,8.7,22,12.1,32.9h-8.4c-2.7,0-4.9,2.2-4.9,4.9
	s2.2,4.9,4.9,4.9h11.8c1,2.2,5.9,15.7,11.2,30.5c-0.1,0-0.1,0-0.2,0h-8.7c-2.1,0-3.8,1.7-3.8,3.8s1.7,3.8,3.8,3.8h8.7
	c1,0,1.9-0.4,2.5-1c4.6,12.8,9.2,26.1,11.9,34.8h-12.2c-2.7,0-4.9,2.2-4.9,4.9s2.2,4.9,4.9,4.9h14.2c0.1,0,0.2-0.6,0.3-0.6
	c1.2,9.9,4.7,40.2,4,44.2c0,0-1.6,2.3-34.8,3.5c-71,2.6-225.3,8.3-240.6,15.9l-59.2-86.4c0,0-6.4-6.8-15.6-8.4l-17.2-0.4
	c0,0-6,1.2-4.8,6.4l29.7,100.3c0,0-35.1,10.4-35.1,12L151.7,388z"/>
</svg>
