<?xml version="1.0" encoding="UTF-8" standalone="no"?><!DOCTYPE svg PUBLIC "-//W3C//DTD SVG 1.1//EN" "http://www.w3.org/Graphics/SVG/1.1/DTD/svg11.dtd"><svg width="100%" height="100%" viewBox="0 0 159 159" version="1.1" xmlns="http://www.w3.org/2000/svg" xmlns:xlink="http://www.w3.org/1999/xlink" xml:space="preserve" xmlns:serif="http://www.serif.com/" style="fill-rule:evenodd;clip-rule:evenodd;stroke-linecap:round;stroke-linejoin:round;stroke-miterlimit:1.5;"><g><path d="M121.832,147.885c-25.517,0.48 -53.808,-0.119 -85.541,0c15.727,-44.95 22.151,-89.6 16.858,-133.499c15.129,-5.583 32.493,-5.978 51.825,-0c-5.386,44.499 1.226,88.999 16.858,133.499Z" style="stroke:#000;stroke-width:0.77px;"/><path d="M104.193,21.738c-16.756,-5.616 -33.511,-5.693 -50.267,-0.002c-0.113,-1.239 -0.234,-2.478 -0.365,-3.716c15.888,-5.906 32.884,-5.919 50.998,0.016c-0.131,1.234 -0.253,2.468 -0.366,3.702Z" style="fill:#fff;stroke:#000;stroke-width:0.77px;"/><path d="M88.379,54.934l-5.808,8.41c-2.173,-1.254 -4.85,-1.254 -7.022,0l-5.808,-8.41c5.676,-3.65 12.962,-3.65 18.638,0Zm-26.529,13.667l10.187,0.825c0,2.509 1.339,4.827 3.512,6.082l-4.38,9.234c-5.999,-3.09 -9.642,-9.4 -9.319,-16.141Zm25.101,16.141l-4.38,-9.234c2.173,-1.255 3.511,-3.573 3.511,-6.082l10.188,-0.825c0.323,6.741 -3.32,13.051 -9.319,16.141Z" style="fill:#fff;stroke:#000;stroke-width:0.77px;"/><circle cx="79.06" cy="69.543" r="3.475" style="fill:#fff;stroke:#000;stroke-width:0.77px;"/></g><rect x="0" y="0" width="158.124" height="158.124" style="fill:none;"/></svg>