<?xml version="1.0" encoding="UTF-8" standalone="no"?><!DOCTYPE svg PUBLIC "-//W3C//DTD SVG 1.1//EN" "http://www.w3.org/Graphics/SVG/1.1/DTD/svg11.dtd"><svg width="100%" height="100%" viewBox="0 0 166 166" version="1.1" xmlns="http://www.w3.org/2000/svg" xmlns:xlink="http://www.w3.org/1999/xlink" xml:space="preserve" xmlns:serif="http://www.serif.com/" style="fill-rule:evenodd;clip-rule:evenodd;stroke-linecap:round;stroke-linejoin:round;stroke-miterlimit:1.5;"><rect x="0" y="0" width="165.016" height="165.016" style="fill:none;"/><g><path d="M59.128,25.716l-0,2.177c-0,0.601 -0.488,1.088 -1.089,1.088l-2.885,0c-0.601,0 -1.089,-0.487 -1.089,-1.088l0,-2.177c0,-0.601 0.488,-1.088 1.089,-1.088l2.885,-0c0.601,-0 1.089,0.487 1.089,1.088Z" style="stroke:#000;stroke-width:0.77px;"/><path d="M111.129,25.716l-0,2.177c-0,0.601 -0.488,1.088 -1.089,1.088l-3.477,0c-0.601,0 -1.089,-0.487 -1.089,-1.088l0,-2.177c0,-0.601 0.488,-1.088 1.089,-1.088l3.477,-0c0.601,-0 1.089,0.487 1.089,1.088Z" style="stroke:#000;stroke-width:0.77px;"/><g><path d="M125.278,157.934c-25.517,0.48 -53.808,-0.118 -85.541,0c15.727,-44.95 22.151,-89.6 16.859,-133.499c15.128,-5.583 32.492,-5.978 51.824,-0c-5.386,44.5 1.226,89 16.858,133.499Z" style="stroke:#000;stroke-width:0.77px;"/><path d="M107.639,31.787c-16.756,-5.616 -33.511,-5.693 -50.267,-0.001c-0.112,-1.24 -0.234,-2.479 -0.365,-3.717c15.889,-5.906 32.885,-5.919 50.998,0.016c-0.131,1.234 -0.253,2.468 -0.366,3.702Z" style="fill:#fff;stroke:#000;stroke-width:0.77px;"/><path d="M91.825,64.983l-5.808,8.411c-2.172,-1.255 -4.849,-1.255 -7.022,-0l-5.808,-8.411c5.677,-3.65 12.962,-3.65 18.638,0Zm-26.529,13.667l10.188,0.825c-0,2.509 1.338,4.827 3.511,6.082l-4.38,9.235c-5.999,-3.091 -9.642,-9.4 -9.319,-16.142Zm25.101,16.142l-4.38,-9.235c2.173,-1.255 3.512,-3.573 3.512,-6.082l10.187,-0.825c0.323,6.742 -3.32,13.051 -9.319,16.142Z" style="fill:#fff;stroke:#000;stroke-width:0.77px;"/><circle cx="82.506" cy="79.592" r="3.475" style="fill:#fff;stroke:#000;stroke-width:0.77px;"/></g><g><path d="M117.309,44.512l-6.72,-8.21c-1.077,-1.289 1.556,-3.406 2.657,-2.086l6.72,8.209c1.179,1.45 -1.524,3.485 -2.657,2.087Z"/><path d="M125.088,35.042l-10.436,-2.853c-1.658,-0.436 -0.71,-3.611 0.985,-3.165l10.436,2.853c1.836,0.508 0.783,3.656 -0.985,3.165Z"/><path d="M125.992,23.071l-10.377,3.537c-1.638,0.575 -2.718,-2.51 -1.043,-3.098l10.378,-3.537c1.829,-0.617 2.805,2.506 1.042,3.098Z"/><path d="M119.696,12.93l-6.566,8.647c-1.026,1.379 -3.744,-0.501 -2.694,-1.911l6.565,-8.647c1.162,-1.519 3.815,0.45 2.695,1.911Z"/><path d="M108.475,8.287l-0.379,10.629c-0.043,1.683 -3.415,1.689 -3.371,-0.032l0.379,-10.629c0.073,-1.872 3.443,-1.771 3.371,0.032Z"/></g><g><path d="M48.223,44.512l6.72,-8.21c1.078,-1.289 -1.555,-3.406 -2.657,-2.086l-6.72,8.209c-1.178,1.45 1.524,3.485 2.657,2.087Z"/><path d="M40.445,35.042l10.436,-2.853c1.657,-0.436 0.709,-3.611 -0.986,-3.165l-10.436,2.853c-1.836,0.508 -0.782,3.656 0.986,3.165Z"/><path d="M39.54,23.071l10.377,3.537c1.638,0.575 2.719,-2.51 1.043,-3.098l-10.377,-3.537c-1.83,-0.617 -2.806,2.506 -1.043,3.098Z"/><path d="M45.837,12.93l6.565,8.647c1.026,1.379 3.744,-0.501 2.694,-1.911l-6.565,-8.647c-1.161,-1.519 -3.814,0.45 -2.694,1.911Z"/><path d="M57.058,8.287l0.378,10.629c0.043,1.683 3.415,1.689 3.371,-0.032l-0.378,-10.629c-0.074,-1.872 -3.444,-1.771 -3.371,0.032Z"/></g></g><rect x="-156.45" y="3.329" width="165.016" height="165.016" style="fill:none;"/><rect x="144.892" y="6.775" width="158.124" height="158.124" style="fill:none;"/></svg>