<?xml version="1.0" encoding="UTF-8" standalone="no"?><!DOCTYPE svg PUBLIC "-//W3C//DTD SVG 1.1//EN" "http://www.w3.org/Graphics/SVG/1.1/DTD/svg11.dtd"><svg width="100%" height="100%" viewBox="0 0 142 142" version="1.1" xmlns="http://www.w3.org/2000/svg" xmlns:xlink="http://www.w3.org/1999/xlink" xml:space="preserve" xmlns:serif="http://www.serif.com/" style="fill-rule:evenodd;clip-rule:evenodd;stroke-linecap:round;stroke-linejoin:round;stroke-miterlimit:1.5;"><g><path d="M45.7,136.681l25.14,-99.384l25.14,99.384" style="fill:none;stroke:#000;stroke-width:3px;"/><path d="M55.854,46.99c-3.89,-3.858 -6.301,-9.206 -6.301,-15.112c0,-5.906 2.411,-11.254 6.301,-15.112m29.972,-0c3.89,3.858 6.301,9.206 6.301,15.112c-0,5.906 -2.411,11.254 -6.301,15.112" style="fill:none;stroke:#000;stroke-width:2.65px;"/><path d="M61.33,41.468c-2.468,-2.448 -3.998,-5.842 -3.998,-9.59c-0,-3.748 1.53,-7.142 3.998,-9.59m19.02,-0c2.469,2.448 3.998,5.842 3.998,9.59c0,3.748 -1.529,7.142 -3.998,9.59" style="fill:none;stroke:#000;stroke-width:2.65px;"/><circle cx="70.84" cy="31.878" r="5.419" style="fill:none;stroke:#000;stroke-width:3px;"/><path d="M45.7,136.681l41.157,-36.065l-24.618,-29.317l17.202,-0l-24.618,29.317l41.157,36.065" style="fill:none;stroke:#000;stroke-width:1.78px;"/></g><g><path d="M57.517,13.317l7.077,2.238c1.117,0.365 1.812,-1.885 0.669,-2.259l-7.076,-2.237c-1.248,-0.39 -1.872,1.884 -0.67,2.258Z"/><path d="M61.663,5.839l4.555,6.025c0.712,0.961 2.531,-0.471 1.803,-1.454l-4.554,-6.024c-0.806,-1.058 -2.58,0.435 -1.804,1.453Z"/><path d="M69.214,2.17l0.384,7.632c0.049,1.209 2.335,1.114 2.284,-0.123l-0.384,-7.632c-0.072,-1.344 -2.355,-1.171 -2.284,0.123Z"/><path d="M77.437,3.636l-3.925,6.479c-0.631,1.02 1.294,2.296 1.939,1.253l3.925,-6.48c0.687,-1.143 -1.279,-2.354 -1.939,-1.252Z"/><path d="M83.358,9.707l-6.814,2.983c-1.083,0.462 -0.215,2.647 0.893,2.175l6.814,-2.983c1.198,-0.53 0.261,-2.686 -0.893,-2.175Z"/></g></svg>