<?xml version="1.0" encoding="UTF-8" standalone="no"?><!DOCTYPE svg PUBLIC "-//W3C//DTD SVG 1.1//EN" "http://www.w3.org/Graphics/SVG/1.1/DTD/svg11.dtd"><svg width="100%" height="100%" viewBox="0 0 142 142" version="1.1" xmlns="http://www.w3.org/2000/svg" xmlns:xlink="http://www.w3.org/1999/xlink" xml:space="preserve" xmlns:serif="http://www.serif.com/" style="fill-rule:evenodd;clip-rule:evenodd;stroke-linecap:round;stroke-linejoin:round;stroke-miterlimit:1.5;"><g><path d="M43.233,136.681l27.607,-109.136l27.607,109.136" style="fill:none;stroke:#000;stroke-width:3px;"/><path d="M54.384,38.189c-4.272,-4.236 -6.919,-10.109 -6.919,-16.595c-0,-6.486 2.647,-12.358 6.919,-16.595m32.912,0c4.272,4.237 6.92,10.109 6.92,16.595c-0,6.486 -2.648,12.359 -6.92,16.595" style="fill:none;stroke:#000;stroke-width:2.65px;"/><path d="M60.397,32.125c-2.711,-2.688 -4.391,-6.415 -4.391,-10.531c0,-4.116 1.68,-7.842 4.391,-10.531m20.886,0c2.711,2.689 4.391,6.415 4.391,10.531c-0,4.116 -1.68,7.843 -4.391,10.531" style="fill:none;stroke:#000;stroke-width:2.65px;"/><circle cx="70.84" cy="21.594" r="5.95" style="fill:none;stroke:#000;stroke-width:3px;"/><path d="M43.233,136.681l45.196,-39.604l-27.034,-32.194l18.89,0l-27.034,32.194l45.196,39.604" style="fill:none;stroke:#000;stroke-width:1.78px;"/></g></svg>