<?xml version="1.0" encoding="UTF-8" standalone="no"?><!DOCTYPE svg PUBLIC "-//W3C//DTD SVG 1.1//EN" "http://www.w3.org/Graphics/SVG/1.1/DTD/svg11.dtd"><svg width="100%" height="100%" viewBox="0 0 142 142" version="1.1" xmlns="http://www.w3.org/2000/svg" xmlns:xlink="http://www.w3.org/1999/xlink" xml:space="preserve" xmlns:serif="http://www.serif.com/" style="fill-rule:evenodd;clip-rule:evenodd;stroke-linecap:round;stroke-linejoin:round;stroke-miterlimit:1.5;"><g><g id="Fenster"><rect x="48.311" y="20.496" width="45.057" height="6.283" style="fill:#fff;stroke:#000;stroke-width:1.5px;"/><rect x="48.311" y="34.767" width="45.057" height="6.283" style="fill:#fff;stroke:#000;stroke-width:1.5px;"/><rect x="48.311" y="49.039" width="45.057" height="6.283" style="fill:#fff;stroke:#000;stroke-width:1.5px;"/><rect x="48.311" y="63.31" width="45.057" height="6.283" style="fill:#fff;stroke:#000;stroke-width:1.5px;"/><rect x="48.311" y="77.582" width="45.057" height="6.283" style="fill:#fff;stroke:#000;stroke-width:1.5px;"/><rect x="48.311" y="91.854" width="45.057" height="6.283" style="fill:#fff;stroke:#000;stroke-width:1.5px;"/><rect x="48.311" y="106.125" width="45.057" height="6.283" style="fill:#fff;stroke:#000;stroke-width:1.5px;"/><rect x="48.311" y="120.397" width="45.057" height="6.283" style="fill:#fff;stroke:#000;stroke-width:1.5px;"/></g><path d="M88.643,13.651l9.842,0l0,122.973l-55.29,-0l-0,-122.973l9.843,0l-0,-8.595l35.605,0l-0,8.595Zm4.726,106.746l-45.058,-0l0,6.283l45.058,0l-0,-6.283Zm-0,-42.815l-45.058,0l0,6.283l45.058,0l-0,-6.283Zm-0,-14.272l-45.058,0l0,6.284l45.058,-0l-0,-6.284Zm-0,42.815l-45.058,0l0,6.283l45.058,0l-0,-6.283Zm-0,-85.629l-45.058,-0l0,6.283l45.058,-0l-0,-6.283Zm-0,14.271l-45.058,0l0,6.283l45.058,0l-0,-6.283Zm-0,57.087l-45.058,-0l0,6.283l45.058,-0l-0,-6.283Zm-0,-42.815l-45.058,-0l0,6.283l45.058,-0l-0,-6.283Z"/></g></svg>