<?xml version="1.0" encoding="UTF-8" standalone="no"?><!DOCTYPE svg PUBLIC "-//W3C//DTD SVG 1.1//EN" "http://www.w3.org/Graphics/SVG/1.1/DTD/svg11.dtd"><svg width="100%" height="100%" viewBox="0 0 142 142" version="1.1" xmlns="http://www.w3.org/2000/svg" xmlns:xlink="http://www.w3.org/1999/xlink" xml:space="preserve" xmlns:serif="http://www.serif.com/" style="fill-rule:evenodd;clip-rule:evenodd;stroke-linecap:round;stroke-linejoin:round;stroke-miterlimit:1.5;"><g><g id="Fenster"><rect x="48.311" y="23.024" width="45.057" height="6.283" style="fill:#fff;stroke:#000;stroke-width:1.5px;"/><rect x="48.311" y="37.295" width="45.057" height="6.283" style="fill:#fff;stroke:#000;stroke-width:1.5px;"/><rect x="48.311" y="51.567" width="45.057" height="6.283" style="fill:#fff;stroke:#000;stroke-width:1.5px;"/><rect x="48.311" y="65.839" width="45.057" height="6.283" style="fill:#fff;stroke:#000;stroke-width:1.5px;"/><rect x="48.311" y="80.11" width="45.057" height="6.283" style="fill:#fff;stroke:#000;stroke-width:1.5px;"/><rect x="48.311" y="94.382" width="45.057" height="6.283" style="fill:#fff;stroke:#000;stroke-width:1.5px;"/><rect x="48.311" y="108.654" width="45.057" height="6.283" style="fill:#fff;stroke:#000;stroke-width:1.5px;"/><rect x="48.311" y="122.925" width="45.057" height="6.283" style="fill:#fff;stroke:#000;stroke-width:1.5px;"/></g><path d="M88.643,16.18l9.842,-0l0,122.972l-55.29,0l-0,-122.972l9.843,-0l-0,-8.595l35.605,-0l-0,8.595Zm4.726,106.745l-45.058,0l0,6.283l45.058,0l-0,-6.283Zm-0,-42.815l-45.058,0l0,6.283l45.058,0l-0,-6.283Zm-0,-14.271l-45.058,-0l0,6.283l45.058,-0l-0,-6.283Zm-0,42.815l-45.058,-0l0,6.283l45.058,-0l-0,-6.283Zm-0,-85.63l-45.058,-0l0,6.283l45.058,-0l-0,-6.283Zm-0,14.271l-45.058,0l0,6.284l45.058,-0l-0,-6.284Zm-0,57.087l-45.058,-0l0,6.283l45.058,0l-0,-6.283Zm-0,-42.815l-45.058,0l0,6.283l45.058,0l-0,-6.283Z"/></g><g><path d="M105.04,28.844l-4.701,-5.743c-0.754,-0.902 1.088,-2.383 1.859,-1.46l4.701,5.743c0.824,1.014 -1.067,2.438 -1.859,1.46Z"/><path d="M110.481,22.219l-7.3,-1.995c-1.16,-0.305 -0.497,-2.526 0.689,-2.214l7.3,1.995c1.285,0.356 0.548,2.558 -0.689,2.214Z"/><path d="M111.114,13.846l-7.259,2.473c-1.146,0.403 -1.902,-1.755 -0.73,-2.167l7.259,-2.474c1.28,-0.431 1.963,1.753 0.73,2.168Z"/><path d="M106.709,6.752l-4.592,6.048c-0.718,0.965 -2.619,-0.35 -1.885,-1.337l4.593,-6.048c0.812,-1.063 2.668,0.314 1.884,1.337Z"/><path d="M98.86,3.504l-0.265,7.435c-0.03,1.177 -2.389,1.182 -2.358,-0.023l0.265,-7.435c0.051,-1.309 2.409,-1.238 2.358,0.023Z"/></g><g><path d="M36.641,28.844l4.7,-5.743c0.754,-0.902 -1.088,-2.383 -1.858,-1.46l-4.701,5.743c-0.825,1.014 1.066,2.438 1.859,1.46Z"/><path d="M31.199,22.219l7.3,-1.995c1.16,-0.305 0.497,-2.526 -0.689,-2.214l-7.3,1.995c-1.285,0.356 -0.547,2.558 0.689,2.214Z"/><path d="M30.566,13.846l7.26,2.473c1.145,0.403 1.901,-1.755 0.729,-2.167l-7.259,-2.474c-1.28,-0.431 -1.963,1.753 -0.73,2.168Z"/><path d="M34.971,6.752l4.593,6.048c0.718,0.965 2.619,-0.35 1.884,-1.337l-4.592,-6.048c-0.813,-1.063 -2.668,0.314 -1.885,1.337Z"/><path d="M42.82,3.504l0.265,7.435c0.03,1.177 2.389,1.182 2.358,-0.023l-0.265,-7.435c-0.051,-1.309 -2.408,-1.238 -2.358,0.023Z"/></g></svg>