<?xml version="1.0" encoding="UTF-8" standalone="no"?><!DOCTYPE svg PUBLIC "-//W3C//DTD SVG 1.1//EN" "http://www.w3.org/Graphics/SVG/1.1/DTD/svg11.dtd"><svg width="100%" height="100%" viewBox="0 0 344 344" version="1.1" xmlns="http://www.w3.org/2000/svg" xmlns:xlink="http://www.w3.org/1999/xlink" xml:space="preserve" xmlns:serif="http://www.serif.com/" style="fill-rule:evenodd;clip-rule:evenodd;stroke-linecap:round;stroke-linejoin:round;stroke-miterlimit:1.5;"><path d="M154.91,200.479l-42.092,8.469l-106.729,46.327c-0,-0 -1.083,-15.428 1.162,-17.192c1.957,-1.538 57.124,-36.405 95.786,-61.975c11.126,-7.359 36.039,-27.192 51.873,-42.014l0,-60.961c0.416,-74.74 33.668,-76.238 33.244,-0l-0,60.977c15.835,14.82 40.758,34.644 51.876,41.998c38.663,25.57 93.829,60.437 95.787,61.975c2.244,1.764 1.162,17.192 1.162,17.192l-106.729,-46.327l-42.096,-8.464l-0,21.361c1.254,-3.172 4.226,-5.318 7.579,-5.127l2.413,0.138c4.301,0.245 7.61,4.243 7.385,8.922l-1.569,32.551c-0.059,1.232 -1.265,0.822 -3.05,0.112l-1.732,5.557l-8.423,-0.481l-1.229,-5.918c-0.516,0.14 -0.995,0.273 -1.424,0.375c-0.403,3.144 -3.239,8.131 -6.372,11.254c14.588,11.024 47.275,35.817 49.16,38.062c1.338,1.593 0.641,19.263 0.641,19.263l-55.039,-24.819c-0.625,4.385 -2.611,12.316 -4.96,12.316c-2.302,0 -4.254,-7.611 -4.921,-12.044l-54.436,24.547c0,-0 -0.696,-17.67 0.641,-19.263c1.87,-2.227 34.038,-26.633 48.798,-37.788c-3.23,-3.086 -6.215,-8.247 -6.651,-11.487c-0.473,-0.105 -1.014,-0.256 -1.602,-0.416l-1.23,5.918l-8.422,0.481l-1.732,-5.557c-1.786,0.71 -2.992,1.12 -3.051,-0.112l-1.568,-32.551c-0.226,-4.679 3.083,-8.677 7.384,-8.922l2.413,-0.138c3.519,-0.2 6.619,2.173 7.753,5.606l0,-21.845Z" style="fill:none;stroke:#000;stroke-width:1.7px;"/><rect x="0" y="-0" width="343.068" height="343.068" style="fill:none;"/></svg>