<?xml version="1.0" encoding="UTF-8" standalone="no"?><!DOCTYPE svg PUBLIC "-//W3C//DTD SVG 1.1//EN" "http://www.w3.org/Graphics/SVG/1.1/DTD/svg11.dtd"><svg width="100%" height="100%" viewBox="0 0 142 142" version="1.1" xmlns="http://www.w3.org/2000/svg" xmlns:xlink="http://www.w3.org/1999/xlink" xml:space="preserve" xmlns:serif="http://www.serif.com/" style="fill-rule:evenodd;clip-rule:evenodd;stroke-linecap:round;stroke-linejoin:round;stroke-miterlimit:1.5;"><g><path d="M134.55,3.082l-74.039,78.407c0,0 -49.156,-35.731 -53.13,-38.084c-0.15,-0.039 -0.235,-0.073 -0.251,-0.102l127.42,-40.221Z" style="fill:none;stroke:#000;stroke-width:4.5px;"/><path d="M134.344,3.082l0,53.353" style="fill:none;stroke:#000;stroke-width:4.5px;"/><path d="M125.718,56.608c0.444,4.199 2.32,7.578 4.464,7.535c2.143,-0.043 3.883,-3.494 4.157,-7.708c0.113,5.608 -1.727,10.2 -4.106,10.248c-2.38,0.048 -4.403,-4.467 -4.515,-10.075Z" style="stroke:#000;stroke-width:4.5px;"/><path d="M7.13,43.303l72.201,18.256l-12.581,-37.075l42.61,5.275l4.201,-20.051l8.09,7.035l-26.619,-1.187l1.538,27.747c0,-0 -57.82,-11.385 -57.417,-10.108c0.403,1.276 21.358,48.294 21.358,48.294" style="fill:none;stroke:#000;stroke-width:2.4px;"/><path d="M60.511,81.489l0,57.109l-53.381,0l-0,-95.295c0.016,0.029 0.101,0.063 0.251,0.102c3.974,2.353 53.13,38.084 53.13,38.084Z" style="stroke:#000;stroke-width:4.5px;"/></g></svg>