<?xml version="1.0" encoding="UTF-8" standalone="no"?><!DOCTYPE svg PUBLIC "-//W3C//DTD SVG 1.1//EN" "http://www.w3.org/Graphics/SVG/1.1/DTD/svg11.dtd"><svg width="100%" height="100%" viewBox="0 0 142 142" version="1.1" xmlns="http://www.w3.org/2000/svg" xmlns:xlink="http://www.w3.org/1999/xlink" xml:space="preserve" xmlns:serif="http://www.serif.com/" style="fill-rule:evenodd;clip-rule:evenodd;stroke-linecap:round;stroke-linejoin:round;stroke-miterlimit:1.5;"><g><path d="M118.344,19.601l-65.031,68.868c0,0 -43.176,-31.385 -46.666,-33.451c-0.132,-0.034 -0.207,-0.064 -0.221,-0.09l111.918,-35.327Z" style="fill:none;stroke:#000;stroke-width:4.5px;"/><path d="M118.163,19.601l0,46.862" style="fill:none;stroke:#000;stroke-width:4.5px;"/><path d="M110.587,66.615c0.389,3.688 2.037,6.656 3.92,6.618c1.883,-0.038 3.411,-3.069 3.652,-6.77c0.099,4.926 -1.517,8.959 -3.607,9.001c-2.09,0.042 -3.867,-3.923 -3.965,-8.849Z" style="stroke:#000;stroke-width:4.5px;"/><path d="M6.426,54.928l63.417,16.036l-11.05,-32.565l37.426,4.633l3.69,-17.611l7.106,6.179l-23.381,-1.042l1.351,24.37c0,0 -50.786,-9.999 -50.432,-8.878c0.354,1.121 18.76,42.419 18.76,42.419" style="fill:none;stroke:#000;stroke-width:2.4px;"/><path d="M53.313,88.469l0,50.161l-46.887,-0l0,-83.702c0.014,0.026 0.089,0.056 0.221,0.09c3.49,2.066 46.666,33.451 46.666,33.451Z" style="stroke:#000;stroke-width:4.5px;"/></g><g><path d="M105.227,9.735l6.012,6.589c0.942,1.053 3.021,-0.868 2.057,-1.945l-6.012,-6.59c-1.063,-1.156 -3.082,0.833 -2.057,1.946Z"/><path d="M114.043,4.455l1.108,9.009c0.162,1.428 2.917,1.035 2.751,-0.426l-1.108,-9.008c-0.2,-1.586 -2.946,-1.102 -2.751,0.425Z"/><path d="M124.106,5.186l-4.197,8.169c-0.677,1.288 1.757,2.566 2.449,1.249l4.197,-8.169c0.735,-1.442 -1.744,-2.637 -2.449,-1.249Z"/><path d="M131.775,11.663l-7.984,4.376c-1.271,0.68 -0.037,3.167 1.263,2.47l7.984,-4.375c1.403,-0.775 0.088,-3.219 -1.263,-2.471Z"/><path d="M134.277,21.544l-8.883,-1.001c-1.405,-0.173 -1.818,2.623 -0.381,2.8l8.883,1.001c1.565,0.171 1.889,-2.637 0.381,-2.8Z"/></g></svg>