<?xml version="1.0" encoding="UTF-8" standalone="no"?><!DOCTYPE svg PUBLIC "-//W3C//DTD SVG 1.1//EN" "http://www.w3.org/Graphics/SVG/1.1/DTD/svg11.dtd"><svg width="100%" height="100%" viewBox="0 0 373 373" version="1.1" xmlns="http://www.w3.org/2000/svg" xmlns:xlink="http://www.w3.org/1999/xlink" xml:space="preserve" xmlns:serif="http://www.serif.com/" style="fill-rule:evenodd;clip-rule:evenodd;stroke-linecap:round;stroke-linejoin:round;stroke-miterlimit:1.5;"><path d="M175.148,206.165l0,69.599l-10.676,92.682c0,0 -22.304,0.191 -30.907,-0.526c-6.199,-0.517 -6.915,-5.713 -6.915,-5.713l-5.69,-86.443l-0,-0.227l-10.657,-0c-2.434,-0 -5.724,-0.647 -9.14,-1.771c-0.747,15.047 -2.758,25.836 -5.119,25.836c-2.615,-0 -4.8,-13.236 -5.315,-30.834c-3.651,-2.49 -6.239,-5.466 -6.239,-8.576c-0,-3.118 2.6,-5.92 6.265,-8.19c0.559,-17.175 2.716,-29.989 5.289,-29.989c2.347,0 4.348,10.664 5.106,25.575c3.42,-0.972 6.716,-1.509 9.153,-1.509l10.657,-0l-0,-40.021l-8.621,-0l-31.987,-5.031c-2.572,-0.5 -5.454,-1.257 -8.305,-2.22c-1.83,-0.618 -3.646,-1.321 -5.359,-2.097c-1.889,-0.856 -3.652,-1.799 -5.166,-2.813c-2.993,-2.005 -5.014,-4.285 -5.12,-6.705c-0.003,-0.066 -0.004,-0.133 -0.004,-0.2c-0,-2.495 2.049,-4.846 5.126,-6.906c1.513,-1.013 3.274,-1.956 5.162,-2.811c1.713,-0.776 3.53,-1.48 5.361,-2.098c1.768,-0.598 3.548,-1.115 5.259,-1.542l35.033,-5.509l8.621,-0l-0,-40.221l-10.657,0c-2.434,0 -5.724,-0.646 -9.14,-1.771c-0.747,15.048 -2.758,25.837 -5.119,25.837c-2.615,-0 -4.8,-13.236 -5.315,-30.834c-3.651,-2.49 -6.239,-5.466 -6.239,-8.576c-0,-3.118 2.6,-5.92 6.265,-8.19c0.559,-17.175 2.716,-29.989 5.289,-29.989c2.347,0 4.348,10.664 5.106,25.575c3.42,-0.972 6.716,-1.51 9.153,-1.51l10.657,0l-0,-0.028l5.795,-88.052c0,-0 0.611,-5.314 6.81,-5.831c8.603,-0.717 30.72,-0.425 30.72,-0.425l10.863,94.308l0,69.357l7.978,0c5.903,0 46.523,2.45 81.337,6.453l7.679,-46.308l25.061,-0.016c-0.486,16.789 -0.722,33.766 -0.701,50.935c11.826,2.246 19.621,4.747 19.621,7.421c0,0.182 -0.036,0.364 -0.107,0.545c-0.082,0.209 -0.211,0.417 -0.384,0.625c-1.876,2.252 -8.998,4.432 -19.046,6.459c0.17,17.203 0.596,34.598 1.283,52.189l-25.727,-0.017l-7.821,-47.163c-34.783,4.383 -75.3,7.266 -81.195,7.266l-7.978,0Z" style="fill:none;stroke:#000;stroke-width:1.7px;"/><rect x="0" y="0" width="372.521" height="372.521" style="fill:none;"/></svg>