<?xml version="1.0" encoding="UTF-8" standalone="no"?><!DOCTYPE svg PUBLIC "-//W3C//DTD SVG 1.1//EN" "http://www.w3.org/Graphics/SVG/1.1/DTD/svg11.dtd"><svg width="100%" height="100%" viewBox="0 0 382 382" version="1.1" xmlns="http://www.w3.org/2000/svg" xmlns:xlink="http://www.w3.org/1999/xlink" xml:space="preserve" xmlns:serif="http://www.serif.com/" style="fill-rule:evenodd;clip-rule:evenodd;stroke-linecap:round;stroke-linejoin:round;stroke-miterlimit:1.5;"><rect x="0" y="0" width="381.565" height="381.565" style="fill:none;"/><g><path d="M192.722,53.155l28.263,220.094l-56.526,-0l28.263,-220.094Z" style="fill:none;stroke:#000;stroke-width:5px;"/><path d="M251.053,357.438l-116.662,-0l30.222,-84.189l56.218,-0l30.222,84.189Z" style="fill:none;stroke:#000;stroke-width:5px;"/><path d="M251.053,157.783l-116.662,-0l47.722,-22.649l21.218,-0l47.722,22.649Z" style="fill:none;stroke:#000;stroke-width:5px;"/><path d="M270.557,231.338l-155.67,-0l58.832,-29.207l38.006,0l58.832,29.207Z" style="fill:none;stroke:#000;stroke-width:5px;"/><path d="M134.391,357.438l86.44,-84.189" style="fill:none;stroke:#000;stroke-width:5px;"/><path d="M164.459,273.679l86.594,83.759" style="fill:none;stroke:#000;stroke-width:5px;"/><path d="M164.613,273.249l50.99,-41.911" style="fill:none;stroke:#000;stroke-width:5px;"/><path d="M169.841,231.338l50.99,41.911" style="fill:none;stroke:#000;stroke-width:5px;"/><path d="M179.305,157.783l32.42,44.348" style="fill:none;stroke:#000;stroke-width:5px;"/><path d="M206.373,157.783l-32.654,44.348" style="fill:none;stroke:#000;stroke-width:5px;"/><path d="M251.053,357.438l8.429,-0" style="fill:none;stroke:#000;stroke-width:5px;"/><path d="M134.391,357.438l-8.406,-0" style="fill:none;stroke:#000;stroke-width:5px;"/><path d="M215.603,231.338l-41.884,-29.207" style="fill:none;stroke:#000;stroke-width:5px;"/><path d="M179.305,157.783l24.026,-22.649" style="fill:none;stroke:#000;stroke-width:5px;"/><path d="M134.391,157.783l0,7.222" style="fill:none;stroke:#000;stroke-width:5px;"/><path d="M251.053,157.783l-0,7.222" style="fill:none;stroke:#000;stroke-width:5px;"/><path d="M270.557,231.338l-0,8.969" style="fill:none;stroke:#000;stroke-width:5px;"/><path d="M114.887,231.338l0,8.969" style="fill:none;stroke:#000;stroke-width:5px;"/><g><path d="M219.936,47.183l-14.026,5.519c-2.213,0.897 -3.931,-3.585 -1.667,-4.501l14.026,-5.52c2.473,-0.963 4.05,3.577 1.667,4.502Z" style="fill:#ffa530;"/><path d="M210.509,32.544l-8.396,12.875c-1.31,2.052 -5.193,-0.611 -3.852,-2.709l8.396,-12.875c1.486,-2.263 5.285,0.532 3.852,2.709Z" style="fill:#ffa530;"/><path d="M194.712,26.115l0.271,15.574c0.066,2.466 -4.577,2.585 -4.644,0.063l-0.271,-15.573c-0.039,-2.743 4.609,-2.705 4.644,-0.064Z" style="fill:#ffa530;"/><path d="M178.258,30.223l8.84,12.639c1.418,1.988 -2.306,4.846 -3.756,2.813l-8.84,-12.639c-1.55,-2.232 2.266,-4.964 3.756,-2.813Z" style="fill:#ffa530;"/><path d="M167.099,43.38l14.211,5.134c2.258,0.79 0.8,5.354 -1.51,4.545l-14.211,-5.134c-2.5,-0.912 -0.897,-5.427 1.51,-4.545Z" style="fill:#ffa530;"/></g></g></svg>