<?xml version="1.0" encoding="UTF-8" standalone="no"?><!DOCTYPE svg PUBLIC "-//W3C//DTD SVG 1.1//EN" "http://www.w3.org/Graphics/SVG/1.1/DTD/svg11.dtd"><svg width="100%" height="100%" viewBox="0 0 106 105" version="1.1" xmlns="http://www.w3.org/2000/svg" xmlns:xlink="http://www.w3.org/1999/xlink" xml:space="preserve" xmlns:serif="http://www.serif.com/" style="fill-rule:evenodd;clip-rule:evenodd;stroke-linecap:round;stroke-linejoin:round;stroke-miterlimit:1.5;"><rect x="0" y="0" width="105.895" height="104.957" style="fill:none;"/><g><path d="M52.948,3.214l9.151,71.268l-18.303,-0l9.152,-71.268Z" style="fill:none;stroke:#000;stroke-width:1.7px;"/><path d="M71.835,101.743l-37.775,-0l9.786,-27.261l18.203,-0l9.786,27.261Z" style="fill:none;stroke:#000;stroke-width:1.7px;"/><path d="M71.835,37.093l-37.775,0l15.452,-7.333l6.871,-0l15.452,7.333Z" style="fill:none;stroke:#000;stroke-width:1.7px;"/><path d="M78.151,60.911l-50.407,-0l19.05,-9.457l12.307,-0l19.05,9.457Z" style="fill:none;stroke:#000;stroke-width:1.7px;"/><path d="M34.06,101.743l27.989,-27.261" style="fill:none;stroke:#000;stroke-width:1.7px;"/><path d="M43.796,74.621l28.039,27.122" style="fill:none;stroke:#000;stroke-width:1.7px;"/><path d="M43.846,74.482l16.511,-13.571" style="fill:none;stroke:#000;stroke-width:1.7px;"/><path d="M45.538,60.911l16.511,13.571" style="fill:none;stroke:#000;stroke-width:1.7px;"/><path d="M48.603,37.093l10.498,14.361" style="fill:none;stroke:#000;stroke-width:1.7px;"/><path d="M57.368,37.093l-10.574,14.361" style="fill:none;stroke:#000;stroke-width:1.7px;"/><path d="M71.835,101.743l2.73,-0" style="fill:none;stroke:#000;stroke-width:1.7px;"/><path d="M34.06,101.743l-2.722,-0" style="fill:none;stroke:#000;stroke-width:1.7px;"/><path d="M60.357,60.911l-13.563,-9.457" style="fill:none;stroke:#000;stroke-width:1.7px;"/><path d="M48.603,37.093l7.78,-7.333" style="fill:none;stroke:#000;stroke-width:1.7px;"/><path d="M34.06,37.093l-0,2.339" style="fill:none;stroke:#000;stroke-width:1.7px;"/><path d="M71.835,37.093l0,2.339" style="fill:none;stroke:#000;stroke-width:1.7px;"/><path d="M78.151,60.911l-0,2.904" style="fill:none;stroke:#000;stroke-width:1.7px;"/><path d="M27.744,60.911l0,2.904" style="fill:none;stroke:#000;stroke-width:1.7px;"/></g></svg>