<?xml version="1.0" encoding="UTF-8" standalone="no"?><!DOCTYPE svg PUBLIC "-//W3C//DTD SVG 1.1//EN" "http://www.w3.org/Graphics/SVG/1.1/DTD/svg11.dtd"><svg width="100%" height="100%" viewBox="0 0 382 382" version="1.1" xmlns="http://www.w3.org/2000/svg" xmlns:xlink="http://www.w3.org/1999/xlink" xml:space="preserve" xmlns:serif="http://www.serif.com/" style="fill-rule:evenodd;clip-rule:evenodd;stroke-linecap:round;stroke-linejoin:round;stroke-miterlimit:1.5;"><g><path d="M190.783,38.641l28.263,220.094l-56.527,0l28.264,-220.094Z" style="fill:none;stroke:#000;stroke-width:5px;"/><path d="M249.114,342.924l-116.662,0l30.222,-84.189l56.218,0l30.222,84.189Z" style="fill:none;stroke:#000;stroke-width:5px;"/><path d="M249.114,143.269l-116.662,0l47.722,-22.648l21.218,-0l47.722,22.648Z" style="fill:none;stroke:#000;stroke-width:5px;"/><path d="M268.618,216.824l-155.67,0l58.832,-29.206l38.006,-0l58.832,29.206Z" style="fill:none;stroke:#000;stroke-width:5px;"/><path d="M132.452,342.924l86.44,-84.189" style="fill:none;stroke:#000;stroke-width:5px;"/><path d="M162.519,259.166l86.595,83.758" style="fill:none;stroke:#000;stroke-width:5px;"/><path d="M162.674,258.735l50.99,-41.911" style="fill:none;stroke:#000;stroke-width:5px;"/><path d="M167.901,216.824l50.991,41.911" style="fill:none;stroke:#000;stroke-width:5px;"/><path d="M177.366,143.269l32.42,44.349" style="fill:none;stroke:#000;stroke-width:5px;"/><path d="M204.434,143.269l-32.654,44.349" style="fill:none;stroke:#000;stroke-width:5px;"/><path d="M249.114,342.924l8.429,0" style="fill:none;stroke:#000;stroke-width:5px;"/><path d="M132.452,342.924l-8.406,0" style="fill:none;stroke:#000;stroke-width:5px;"/><path d="M213.664,216.824l-41.884,-29.206" style="fill:none;stroke:#000;stroke-width:5px;"/><path d="M177.366,143.269l24.026,-22.648" style="fill:none;stroke:#000;stroke-width:5px;"/><path d="M132.452,143.269l-0,7.223" style="fill:none;stroke:#000;stroke-width:5px;"/><path d="M249.114,143.269l-0,7.223" style="fill:none;stroke:#000;stroke-width:5px;"/><path d="M268.618,216.824l-0,8.97" style="fill:none;stroke:#000;stroke-width:5px;"/><path d="M112.948,216.824l-0,8.97" style="fill:none;stroke:#000;stroke-width:5px;"/></g><rect x="0" y="0" width="381.565" height="381.565" style="fill:none;"/></svg>