<?xml version="1.0" encoding="UTF-8" standalone="no"?><!DOCTYPE svg PUBLIC "-//W3C//DTD SVG 1.1//EN" "http://www.w3.org/Graphics/SVG/1.1/DTD/svg11.dtd"><svg width="100%" height="100%" viewBox="0 0 113 112" version="1.1" xmlns="http://www.w3.org/2000/svg" xmlns:xlink="http://www.w3.org/1999/xlink" xml:space="preserve" xmlns:serif="http://www.serif.com/" style="fill-rule:evenodd;clip-rule:evenodd;stroke-linecap:round;stroke-linejoin:round;stroke-miterlimit:1.5;"><rect x="0" y="0" width="112.73" height="111.731" style="fill:none;"/><g><path d="M56.365,11.301l9.152,71.268l-18.304,-0l9.152,-71.268Z" style="fill:none;stroke:#000;stroke-width:1.7px;"/><path d="M75.253,109.829l-37.776,0l9.786,-27.26l18.204,-0l9.786,27.26Z" style="fill:none;stroke:#000;stroke-width:1.7px;"/><path d="M75.253,45.18l-37.776,-0l15.453,-7.334l6.87,0l15.453,7.334Z" style="fill:none;stroke:#000;stroke-width:1.7px;"/><path d="M81.568,68.998l-50.406,-0l19.05,-9.458l12.306,0l19.05,9.458Z" style="fill:none;stroke:#000;stroke-width:1.7px;"/><path d="M37.477,109.829l27.99,-27.26" style="fill:none;stroke:#000;stroke-width:1.7px;"/><path d="M47.213,82.708l28.04,27.121" style="fill:none;stroke:#000;stroke-width:1.7px;"/><path d="M47.263,82.569l16.511,-13.571" style="fill:none;stroke:#000;stroke-width:1.7px;"/><path d="M48.956,68.998l16.511,13.571" style="fill:none;stroke:#000;stroke-width:1.7px;"/><path d="M52.021,45.18l10.497,14.36" style="fill:none;stroke:#000;stroke-width:1.7px;"/><path d="M60.785,45.18l-10.573,14.36" style="fill:none;stroke:#000;stroke-width:1.7px;"/><path d="M75.253,109.829l2.729,0" style="fill:none;stroke:#000;stroke-width:1.7px;"/><path d="M37.477,109.829l-2.722,0" style="fill:none;stroke:#000;stroke-width:1.7px;"/><path d="M63.774,68.998l-13.562,-9.458" style="fill:none;stroke:#000;stroke-width:1.7px;"/><path d="M52.021,45.18l7.779,-7.334" style="fill:none;stroke:#000;stroke-width:1.7px;"/><path d="M37.477,45.18l0,2.339" style="fill:none;stroke:#000;stroke-width:1.7px;"/><path d="M75.253,45.18l-0,2.339" style="fill:none;stroke:#000;stroke-width:1.7px;"/><path d="M81.568,68.998l0,2.904" style="fill:none;stroke:#000;stroke-width:1.7px;"/><path d="M31.162,68.998l-0,2.904" style="fill:none;stroke:#000;stroke-width:1.7px;"/><g><path d="M65.177,9.367l-4.542,1.787c-0.716,0.291 -1.273,-1.161 -0.54,-1.457l4.542,-1.788c0.801,-0.312 1.312,1.159 0.54,1.458Z"/><path d="M62.124,4.627l-2.718,4.169c-0.424,0.664 -1.682,-0.198 -1.248,-0.877l2.719,-4.169c0.481,-0.733 1.712,0.172 1.247,0.877Z"/><path d="M57.009,2.545l0.088,5.043c0.021,0.799 -1.482,0.837 -1.504,0.021l-0.088,-5.043c-0.012,-0.888 1.493,-0.876 1.504,-0.021Z"/><path d="M51.681,3.875l2.863,4.093c0.459,0.644 -0.747,1.569 -1.216,0.911l-2.863,-4.093c-0.502,-0.722 0.734,-1.607 1.216,-0.911Z"/><path d="M48.068,8.136l4.602,1.662c0.731,0.256 0.259,1.734 -0.489,1.472l-4.602,-1.663c-0.809,-0.295 -0.29,-1.757 0.489,-1.471Z"/></g></g></svg>