<?xml version="1.0" encoding="UTF-8" standalone="no"?><!DOCTYPE svg PUBLIC "-//W3C//DTD SVG 1.1//EN" "http://www.w3.org/Graphics/SVG/1.1/DTD/svg11.dtd"><svg width="100%" height="100%" viewBox="0 0 418 418" version="1.1" xmlns="http://www.w3.org/2000/svg" xmlns:xlink="http://www.w3.org/1999/xlink" xml:space="preserve" xmlns:serif="http://www.serif.com/" style="fill-rule:evenodd;clip-rule:evenodd;stroke-linecap:round;stroke-linejoin:round;stroke-miterlimit:1.5;"><path d="M200.127,251.163c-37.011,-0.018 -189.276,-4.03 -194.597,-6.686c-1.528,-0.763 -0.744,-12.164 -0.744,-12.164c64.114,-6.037 129.804,-7.871 196.058,-8.202c0.943,-26.525 2.726,-69.856 4.793,-95.774c-7.588,-0.894 -26.208,-3.231 -30.692,-5.125c-1.348,-0.569 -0.714,-8.808 -0.714,-8.808l33.137,-2.611c0.498,-3.193 1.004,-4.994 1.509,-4.994c0.508,0 0.989,1.782 1.451,4.994l33.144,2.611c0,-0 0.634,8.239 -0.714,8.808c-4.523,1.911 -23.433,4.272 -30.89,5.149c1.765,25.918 3.044,69.226 3.692,95.744c66.712,0.312 132.859,2.13 197.409,8.208c-0,0 0.784,11.401 -0.744,12.164c-5.401,2.696 -162.195,6.789 -196.186,6.684l-0,24.824c-0,4.391 -2.771,34.971 -7.162,34.971c-4.39,-0 -8.75,-30.58 -8.75,-34.971l0,-24.822Z" style="fill:none;stroke:#000;stroke-width:1.7px;"/><rect x="0" y="0" width="417.755" height="417.755" style="fill:none;"/></svg>