<?xml version="1.0" encoding="UTF-8" standalone="no"?><!DOCTYPE svg PUBLIC "-//W3C//DTD SVG 1.1//EN" "http://www.w3.org/Graphics/SVG/1.1/DTD/svg11.dtd"><svg width="100%" height="100%" viewBox="0 0 129 97" version="1.1" xmlns="http://www.w3.org/2000/svg" xmlns:xlink="http://www.w3.org/1999/xlink" xml:space="preserve" xmlns:serif="http://www.serif.com/" style="fill-rule:evenodd;clip-rule:evenodd;stroke-linecap:round;stroke-linejoin:round;stroke-miterlimit:1.5;"><path d="M10.641,51.985l-7.247,-0c-1.608,-0 -2.914,-1.583 -2.914,-3.532c-0,-1.949 1.306,-3.531 2.914,-3.531l7.247,0l-0,-11.939l-2.222,-3.862l10.382,-0l-0,15.801l29.212,0c3.128,-4.619 12.252,-8.389 24.205,-10.161l-23.317,-28.254c-1.137,-1.378 -1.137,-3.615 0,-4.994c1.138,-1.378 2.984,-1.378 4.121,0l26.761,32.428c2.543,-0.18 5.169,-0.275 7.856,-0.275c2.686,0 5.313,0.095 7.855,0.275l26.761,-32.428c1.137,-1.378 2.984,-1.378 4.121,0c1.137,1.379 1.137,3.616 0,4.994l-23.316,28.254c14.881,2.206 25.377,7.509 25.377,13.692c-0,6.184 -10.496,11.486 -25.377,13.693l23.316,28.253c1.137,1.379 1.137,3.616 0,4.994c-1.137,1.378 -2.984,1.378 -4.121,0l-26.761,-32.427c-2.542,0.18 -5.169,0.274 -7.855,0.274c-2.687,0 -5.313,-0.094 -7.856,-0.274l-26.761,32.427c-1.137,1.378 -2.983,1.378 -4.121,0c-1.137,-1.378 -1.137,-3.615 0,-4.994l23.317,-28.253c-11.953,-1.772 -21.077,-5.542 -24.205,-10.161l-29.212,-0l-0,15.801l-10.609,0l2.449,-3.882l-0,-11.919Z" style="fill:none;stroke:#000;stroke-width:0.96px;"/></svg>