<?xml version="1.0" encoding="UTF-8" standalone="no"?><!DOCTYPE svg PUBLIC "-//W3C//DTD SVG 1.1//EN" "http://www.w3.org/Graphics/SVG/1.1/DTD/svg11.dtd"><svg width="100%" height="100%" viewBox="0 0 156 156" version="1.1" xmlns="http://www.w3.org/2000/svg" xmlns:xlink="http://www.w3.org/1999/xlink" xml:space="preserve" xmlns:serif="http://www.serif.com/" style="fill-rule:evenodd;clip-rule:evenodd;stroke-linecap:round;stroke-linejoin:round;stroke-miterlimit:1.5;"><path d="M20.447,81.502l-7.746,-0c-1.72,-0 -3.115,-1.582 -3.115,-3.531c-0,-1.949 1.395,-3.531 3.115,-3.531l7.746,-0l-0,-11.94l-2.375,-3.862l11.096,0l0,15.802l31.225,-0c3.244,-4.483 12.523,-8.166 24.745,-9.999l-22.944,-26.011c-1.801,-2.042 -1.801,-5.357 -0,-7.399c1.801,-2.042 4.726,-2.042 6.527,-0l28.467,32.272c1.821,-0.079 3.676,-0.119 5.56,-0.119c2.449,-0 4.851,0.068 7.191,0.2l28.539,-32.353c1.801,-2.042 4.726,-2.042 6.527,-0c1.801,2.042 1.801,5.357 -0,7.399l-23.152,26.247c14.503,2.403 24.503,7.456 24.503,13.294c-0,5.838 -10,10.89 -24.503,13.294l23.152,26.246c1.801,2.042 1.801,5.358 -0,7.4c-1.801,2.042 -4.726,2.042 -6.527,-0l-28.539,-32.354c-2.34,0.132 -4.742,0.201 -7.191,0.201c-1.884,-0 -3.739,-0.041 -5.56,-0.12l-28.467,32.273c-1.801,2.042 -4.726,2.042 -6.527,-0c-1.801,-2.042 -1.801,-5.358 -0,-7.4l22.944,-26.01c-12.222,-1.834 -21.501,-5.516 -24.745,-9.999l-31.225,-0l0,15.801l-11.339,0l2.618,-3.881l-0,-11.92Z" style="fill:none;stroke:#000;stroke-width:1.68px;"/><rect x="0" y="-0" width="155.942" height="155.942" style="fill:none;"/></svg>