<?xml version="1.0" encoding="UTF-8" standalone="no"?><!DOCTYPE svg PUBLIC "-//W3C//DTD SVG 1.1//EN" "http://www.w3.org/Graphics/SVG/1.1/DTD/svg11.dtd"><svg width="100%" height="100%" viewBox="0 0 151 151" version="1.1" xmlns="http://www.w3.org/2000/svg" xmlns:xlink="http://www.w3.org/1999/xlink" xml:space="preserve" xmlns:serif="http://www.serif.com/" style="fill-rule:evenodd;clip-rule:evenodd;stroke-linecap:round;stroke-linejoin:round;stroke-miterlimit:1.5;"><rect x="0" y="0" width="150.763" height="150.763" style="fill:none;"/><g><path d="M94.422,117.747l-0,26.553l-89.669,-0l0,-26.553c0,-23.382 20.09,-42.365 44.834,-42.365c8.864,-0 17.13,2.435 24.09,6.637c12.47,7.527 20.745,20.722 20.745,35.728Z"/><g><path d="M146.01,144.11c-25.517,0.48 -53.808,-0.118 -85.541,0c15.727,-44.95 22.151,-89.6 16.858,-133.499c15.128,-5.583 32.493,-5.978 51.825,-0c-5.387,44.5 1.226,89 16.858,133.499Z" style="stroke:#000;stroke-width:0.77px;"/><path d="M128.371,17.963c-16.756,-5.616 -33.512,-5.693 -50.267,-0.001c-0.113,-1.24 -0.235,-2.479 -0.365,-3.717c15.888,-5.906 32.884,-5.919 50.998,0.016c-0.131,1.234 -0.253,2.468 -0.366,3.702Z" style="fill:#fff;stroke:#000;stroke-width:0.77px;"/><path d="M58.907,96.305l-5.808,8.411c-2.173,-1.255 -4.85,-1.255 -7.023,-0l-5.808,-8.411c5.677,-3.65 12.962,-3.65 18.639,0Zm-26.529,13.667l10.187,0.825c-0,2.509 1.338,4.827 3.511,6.082l-4.379,9.235c-6,-3.091 -9.642,-9.4 -9.319,-16.142Zm25.1,16.142l-4.379,-9.235c2.172,-1.255 3.511,-3.573 3.511,-6.082l10.187,-0.825c0.323,6.742 -3.319,13.051 -9.319,16.142Z" style="fill:#fff;stroke:#000;stroke-width:0.77px;"/><circle cx="49.587" cy="110.914" r="3.475" style="fill:#fff;stroke:#000;stroke-width:0.77px;"/></g></g></svg>