<?xml version="1.0" encoding="UTF-8" standalone="no"?><!DOCTYPE svg PUBLIC "-//W3C//DTD SVG 1.1//EN" "http://www.w3.org/Graphics/SVG/1.1/DTD/svg11.dtd"><svg width="100%" height="100%" viewBox="0 0 151 158" version="1.1" xmlns="http://www.w3.org/2000/svg" xmlns:xlink="http://www.w3.org/1999/xlink" xml:space="preserve" xmlns:serif="http://www.serif.com/" style="fill-rule:evenodd;clip-rule:evenodd;stroke-linecap:round;stroke-linejoin:round;stroke-miterlimit:1.5;"><rect x="0" y="6.932" width="150.763" height="150.763" style="fill:none;"/><g><path d="M79.859,18.824l0,2.177c0,0.6 -0.487,1.088 -1.088,1.088l-2.886,0c-0.6,0 -1.088,-0.488 -1.088,-1.088l-0,-2.177c-0,-0.601 0.488,-1.089 1.088,-1.089l2.886,0c0.601,0 1.088,0.488 1.088,1.089Z" style="stroke:#000;stroke-width:0.77px;"/><path d="M131.86,18.824l0,2.177c0,0.6 -0.487,1.088 -1.088,1.088l-3.478,0c-0.6,0 -1.088,-0.488 -1.088,-1.088l-0,-2.177c-0,-0.601 0.488,-1.089 1.088,-1.089l3.478,0c0.601,0 1.088,0.488 1.088,1.089Z" style="stroke:#000;stroke-width:0.77px;"/><path d="M94.422,124.679l-0,26.552l-89.669,0l0,-26.552c0,-23.382 20.09,-42.366 44.834,-42.366c8.864,0 17.13,2.436 24.09,6.637c12.47,7.528 20.745,20.722 20.745,35.729Z"/><g><path d="M146.01,151.042c-25.517,0.48 -53.808,-0.119 -85.541,0c15.727,-44.95 22.151,-89.6 16.858,-133.5c15.128,-5.582 32.493,-5.977 51.825,0c-5.387,44.5 1.226,89 16.858,133.5Z" style="stroke:#000;stroke-width:0.77px;"/><path d="M128.371,24.895c-16.756,-5.616 -33.512,-5.694 -50.267,-0.002c-0.113,-1.239 -0.235,-2.478 -0.365,-3.716c15.888,-5.906 32.884,-5.919 50.998,0.016c-0.131,1.234 -0.253,2.468 -0.366,3.702Z" style="fill:#fff;stroke:#000;stroke-width:0.77px;"/><path d="M58.907,103.237l-5.808,8.41c-2.173,-1.254 -4.85,-1.254 -7.023,0l-5.808,-8.41c5.677,-3.65 12.962,-3.65 18.639,0Zm-26.529,13.667l10.187,0.825c-0,2.509 1.338,4.827 3.511,6.081l-4.379,9.235c-6,-3.091 -9.642,-9.4 -9.319,-16.141Zm25.1,16.141l-4.379,-9.235c2.172,-1.254 3.511,-3.572 3.511,-6.081l10.187,-0.825c0.323,6.741 -3.319,13.05 -9.319,16.141Z" style="fill:#fff;stroke:#000;stroke-width:0.77px;"/><circle cx="49.587" cy="117.845" r="3.475" style="fill:#fff;stroke:#000;stroke-width:0.77px;"/></g><g><path d="M138.041,37.62l-6.72,-8.21c-1.078,-1.29 1.555,-3.406 2.657,-2.087l6.72,8.21c1.179,1.45 -1.524,3.484 -2.657,2.087Z"/><path d="M145.82,28.149l-10.436,-2.852c-1.658,-0.436 -0.71,-3.611 0.985,-3.165l10.436,2.852c1.836,0.509 0.782,3.657 -0.985,3.165Z"/><path d="M146.724,16.179l-10.377,3.536c-1.638,0.576 -2.719,-2.51 -1.043,-3.098l10.377,-3.536c1.83,-0.617 2.806,2.506 1.043,3.098Z"/><path d="M140.427,6.038l-6.565,8.646c-1.026,1.379 -3.744,-0.5 -2.694,-1.91l6.565,-8.647c1.162,-1.519 3.814,0.449 2.694,1.911Z"/><path d="M129.206,1.395l-0.378,10.629c-0.043,1.683 -3.415,1.689 -3.371,-0.033l0.379,-10.629c0.073,-1.872 3.443,-1.77 3.37,0.033Z"/></g><g><path d="M68.955,37.62l6.72,-8.21c1.077,-1.29 -1.556,-3.406 -2.657,-2.087l-6.72,8.21c-1.179,1.45 1.524,3.484 2.657,2.087Z"/><path d="M61.176,28.149l10.436,-2.852c1.658,-0.436 0.71,-3.611 -0.985,-3.165l-10.436,2.852c-1.836,0.509 -0.782,3.657 0.985,3.165Z"/><path d="M60.272,16.179l10.377,3.536c1.638,0.576 2.719,-2.51 1.043,-3.098l-10.377,-3.536c-1.83,-0.617 -2.806,2.506 -1.043,3.098Z"/><path d="M66.569,6.038l6.565,8.646c1.026,1.379 3.744,-0.5 2.694,-1.91l-6.565,-8.647c-1.162,-1.519 -3.815,0.449 -2.694,1.911Z"/><path d="M77.789,1.395l0.379,10.629c0.043,1.683 3.415,1.689 3.371,-0.033l-0.379,-10.629c-0.073,-1.872 -3.443,-1.77 -3.371,0.033Z"/></g></g></svg>