<?xml version="1.0" encoding="UTF-8" standalone="no"?><!DOCTYPE svg PUBLIC "-//W3C//DTD SVG 1.1//EN" "http://www.w3.org/Graphics/SVG/1.1/DTD/svg11.dtd"><svg width="100%" height="100%" viewBox="0 0 142 142" version="1.1" xmlns="http://www.w3.org/2000/svg" xmlns:xlink="http://www.w3.org/1999/xlink" xml:space="preserve" xmlns:serif="http://www.serif.com/" style="fill-rule:evenodd;clip-rule:evenodd;stroke-linecap:round;stroke-linejoin:round;stroke-miterlimit:1.5;"><g><path d="M65.711,16.813l10.258,0" style="fill:none;stroke:#000;stroke-width:2px;"/><rect x="54.751" y="69.783" width="32.178" height="70.362" style="fill:#fff;"/><path d="M86.929,69.783l0,70.362l-32.178,-0l0,-70.362l32.178,0Zm-5.5,5.5l-21.178,0l0,59.362l21.178,-0l0,-59.362Z"/><path d="M70.84,26.098l16.089,43.685l-32.178,0l16.089,-43.685Z" style="stroke:#000;stroke-width:1.7px;"/><path d="M70.84,26.098l0,-13.788" style="fill:none;stroke:#000;stroke-width:2px;"/><circle cx="70.84" cy="92.489" r="6.851" style="fill:#0c0c0c;stroke:#000;stroke-width:1.7px;"/></g><g><path d="M59.917,11.579l5.802,1.842c0.916,0.301 1.486,-1.552 0.549,-1.859l-5.802,-1.842c-1.023,-0.321 -1.535,1.551 -0.549,1.859Z"/><path d="M63.316,5.424l3.734,4.959c0.584,0.791 2.076,-0.388 1.479,-1.197l-3.734,-4.959c-0.661,-0.871 -2.116,0.358 -1.479,1.197Z"/><path d="M69.507,2.403l0.315,6.282c0.04,0.996 1.914,0.918 1.873,-0.1l-0.315,-6.283c-0.06,-1.106 -1.932,-0.964 -1.873,0.101Z"/><path d="M76.248,3.61l-3.217,5.333c-0.518,0.84 1.061,1.89 1.59,1.031l3.217,-5.333c0.564,-0.942 -1.048,-1.939 -1.59,-1.031Z"/><path d="M81.103,8.607l-5.586,2.456c-0.888,0.38 -0.177,2.179 0.732,1.79l5.586,-2.455c0.983,-0.436 0.214,-2.212 -0.732,-1.791Z"/></g></svg>