<?xml version="1.0" encoding="UTF-8" standalone="no"?><!DOCTYPE svg PUBLIC "-//W3C//DTD SVG 1.1//EN" "http://www.w3.org/Graphics/SVG/1.1/DTD/svg11.dtd"><svg width="100%" height="100%" viewBox="0 0 243 243" version="1.1" xmlns="http://www.w3.org/2000/svg" xmlns:xlink="http://www.w3.org/1999/xlink" xml:space="preserve" xmlns:serif="http://www.serif.com/" style="fill-rule:evenodd;clip-rule:evenodd;stroke-linecap:round;stroke-linejoin:round;stroke-miterlimit:1.5;"><rect x="0" y="0" width="242.315" height="242.315" style="fill:none;"/><g><path d="M115.078,23.08l-0,1.553c-0,0.429 -0.348,0.777 -0.777,0.777l-2.546,0c-0.428,0 -0.776,-0.348 -0.776,-0.777l-0,-1.553c-0,-0.429 0.348,-0.777 0.776,-0.777l2.546,-0c0.429,-0 0.777,0.348 0.777,0.777Z" style="stroke:#000;stroke-width:0.36px;"/><path d="M130.55,22.947l-0,1.554c-0,0.429 -0.348,0.777 -0.777,0.777l-2.546,-0c-0.428,-0 -0.777,-0.348 -0.777,-0.777l0,-1.554c0,-0.429 0.349,-0.777 0.777,-0.777l2.546,0c0.429,0 0.777,0.348 0.777,0.777Z" style="stroke:#000;stroke-width:0.36px;"/><g><path d="M116.282,8.56l-0.128,8.949c-0.007,1.418 -2.856,1.351 -2.849,-0.099l0.128,-8.948c0.028,-1.576 2.878,-1.42 2.849,0.098Z"/><path d="M106.116,10.44l5.181,7.514c0.832,1.182 -1.505,2.715 -2.356,1.505l-5.182,-7.513c-0.908,-1.326 1.484,-2.784 2.357,-1.506Z"/><path d="M99.025,17.67l8.616,3.36c1.37,0.519 0.389,3.097 -1.011,2.566l-8.617,-3.36c-1.516,-0.597 -0.447,-3.142 1.012,-2.566Z"/><path d="M97.574,27.635l8.935,-2.009c1.412,-0.331 2.143,2.359 0.699,2.698l-8.935,2.008c-1.575,0.349 -2.217,-2.363 -0.699,-2.697Z"/><path d="M102.288,36.73l6.022,-6.651c0.943,-1.062 3.121,0.767 2.157,1.854l-6.023,6.65c-1.064,1.168 -3.183,-0.73 -2.156,-1.853Z"/></g><g><path d="M126.033,8.56l0.128,8.949c0.006,1.418 2.855,1.351 2.849,-0.099l-0.128,-8.948c-0.028,-1.576 -2.878,-1.42 -2.849,0.098Z"/><path d="M136.199,10.44l-5.181,7.514c-0.832,1.182 1.505,2.715 2.356,1.505l5.181,-7.513c0.908,-1.326 -1.483,-2.784 -2.356,-1.506Z"/><path d="M143.29,17.67l-8.616,3.36c-1.37,0.519 -0.39,3.097 1.011,2.566l8.617,-3.36c1.515,-0.597 0.447,-3.142 -1.012,-2.566Z"/><path d="M144.741,27.635l-8.935,-2.009c-1.412,-0.331 -2.143,2.359 -0.699,2.698l8.935,2.008c1.575,0.349 2.216,-2.363 0.699,-2.697Z"/><path d="M140.027,36.73l-6.022,-6.651c-0.943,-1.062 -3.121,0.767 -2.157,1.854l6.023,6.65c1.064,1.168 3.183,-0.73 2.156,-1.853Z"/></g><g><path d="M137.009,234.966l-32.473,0l8.118,-212.878c4.738,-2.19 10.121,-2.286 16.236,0l8.119,212.878Z" style="stroke:#000;stroke-width:0.46px;"/><path d="M111.352,56.236l0.158,-4.144c5.929,-0.85 12.105,-0.76 18.536,0.294l0.148,3.878c-6.319,-1.158 -12.599,-1.16 -18.842,-0.028Z" style="fill:#fff;stroke:#000;stroke-width:0.51px;"/><path d="M129.272,32.082c-5.718,-1.567 -11.383,-1.56 -16.998,-0.02l0.099,-2.6c5.261,-1.23 10.857,-1.177 16.806,0.206l0.093,2.414Z" style="fill:#fff;stroke:#000;stroke-width:0.51px;"/></g></g><rect x="-166.436" y="8.877" width="242.315" height="242.315" style="fill:none;"/></svg>