<?xml version="1.0" encoding="UTF-8" standalone="no"?><!DOCTYPE svg PUBLIC "-//W3C//DTD SVG 1.1//EN" "http://www.w3.org/Graphics/SVG/1.1/DTD/svg11.dtd"><svg width="100%" height="100%" viewBox="0 0 276 276" version="1.1" xmlns="http://www.w3.org/2000/svg" xmlns:xlink="http://www.w3.org/1999/xlink" xml:space="preserve" xmlns:serif="http://www.serif.com/" style="fill-rule:evenodd;clip-rule:evenodd;stroke-linecap:round;stroke-linejoin:round;stroke-miterlimit:1.5;"><g><path d="M131.49,39.491l-0,1.554c-0,0.429 -0.348,0.777 -0.777,0.777l-2.546,-0c-0.429,-0 -0.777,-0.348 -0.777,-0.777l0,-1.554c0,-0.429 0.348,-0.777 0.777,-0.777l2.546,0c0.429,0 0.777,0.348 0.777,0.777Z" style="fill:#ffa530;stroke:#000;stroke-width:0.36px;"/><path d="M146.962,39.359l-0,1.554c-0,0.429 -0.349,0.777 -0.777,0.777l-2.546,-0c-0.429,-0 -0.777,-0.348 -0.777,-0.777l0,-1.554c0,-0.429 0.348,-0.777 0.777,-0.777l2.546,0c0.428,0 0.777,0.348 0.777,0.777Z" style="fill:#ffa530;stroke:#000;stroke-width:0.36px;"/><g><path d="M132.693,24.972l-0.128,8.949c-0.006,1.417 -2.855,1.351 -2.848,-0.099l0.128,-8.949c0.028,-1.576 2.877,-1.419 2.848,0.099Z" style="fill:#ffa530;"/><path d="M122.527,26.852l5.181,7.513c0.833,1.182 -1.505,2.715 -2.356,1.506l-5.181,-7.513c-0.908,-1.326 1.483,-2.784 2.356,-1.506Z" style="fill:#ffa530;"/><path d="M115.436,34.082l8.617,3.36c1.369,0.519 0.389,3.097 -1.012,2.565l-8.616,-3.36c-1.516,-0.596 -0.448,-3.141 1.011,-2.565Z" style="fill:#ffa530;"/><path d="M113.985,44.047l8.936,-2.009c1.411,-0.332 2.143,2.358 0.699,2.697l-8.936,2.009c-1.575,0.348 -2.216,-2.364 -0.699,-2.697Z" style="fill:#ffa530;"/><path d="M118.699,53.142l6.023,-6.651c0.942,-1.062 3.121,0.767 2.156,1.853l-6.022,6.651c-1.065,1.168 -3.183,-0.73 -2.157,-1.853Z" style="fill:#ffa530;"/></g><g><path d="M142.445,24.972l0.128,8.949c0.006,1.417 2.855,1.351 2.849,-0.099l-0.129,-8.949c-0.028,-1.576 -2.877,-1.419 -2.848,0.099Z" style="fill:#ffa530;"/><path d="M152.611,26.852l-5.181,7.513c-0.832,1.182 1.505,2.715 2.356,1.506l5.181,-7.513c0.908,-1.326 -1.483,-2.784 -2.356,-1.506Z" style="fill:#ffa530;"/><path d="M159.702,34.082l-8.617,3.36c-1.369,0.519 -0.389,3.097 1.012,2.565l8.616,-3.36c1.516,-0.596 0.448,-3.141 -1.011,-2.565Z" style="fill:#ffa530;"/><path d="M161.153,44.047l-8.936,-2.009c-1.411,-0.332 -2.142,2.358 -0.699,2.697l8.936,2.009c1.575,0.348 2.216,-2.364 0.699,-2.697Z" style="fill:#ffa530;"/><path d="M156.439,53.142l-6.022,-6.651c-0.943,-1.062 -3.122,0.767 -2.157,1.853l6.022,6.651c1.065,1.168 3.184,-0.73 2.157,-1.853Z" style="fill:#ffa530;"/></g><g><path d="M153.42,251.378l-32.473,-0l8.119,-212.878c4.738,-2.191 10.12,-2.286 16.236,-0l8.118,212.878Z" style="stroke:#000;stroke-width:0.46px;"/><path d="M127.763,72.648l0.158,-4.144c5.93,-0.85 12.106,-0.76 18.537,0.294l0.147,3.878c-6.318,-1.158 -12.598,-1.16 -18.842,-0.028Z" style="fill:#fff;stroke:#000;stroke-width:0.51px;"/><path d="M145.683,48.493c-5.717,-1.566 -11.383,-1.559 -16.998,-0.019l0.099,-2.601c5.262,-1.229 10.858,-1.177 16.807,0.207l0.092,2.413Z" style="fill:#fff;stroke:#000;stroke-width:0.51px;"/></g></g><rect x="0" y="0" width="275.138" height="275.138" style="fill:none;"/></svg>