<?xml version="1.0" encoding="UTF-8" standalone="no"?><!DOCTYPE svg PUBLIC "-//W3C//DTD SVG 1.1//EN" "http://www.w3.org/Graphics/SVG/1.1/DTD/svg11.dtd"><svg width="100%" height="100%" viewBox="0 0 142 142" version="1.1" xmlns="http://www.w3.org/2000/svg" xmlns:xlink="http://www.w3.org/1999/xlink" xml:space="preserve" xmlns:serif="http://www.serif.com/" style="fill-rule:evenodd;clip-rule:evenodd;stroke-linecap:round;stroke-linejoin:round;stroke-miterlimit:1.5;"><g><path d="M77.892,139.713l-14.103,0l3.525,-89.645l7.052,-0l3.526,89.645Z"/><path d="M54.778,51.485c11.617,-2.651 22.331,-2.146 32.125,-0l-4.791,17.905c-6.704,1.951 -14.112,2.206 -22.544,-0l-4.79,-17.905Z"/><path d="M54.778,51.485c12.184,1.598 22.82,1.519 32.125,-0" style="stroke:#fff;stroke-width:1px;"/><path d="M70.84,11.76l2.227,39.725l-4.454,-0l2.227,-39.725Z"/></g><g><path d="M59.917,12.011l5.802,1.841c0.916,0.301 1.486,-1.551 0.549,-1.859l-5.802,-1.842c-1.023,-0.321 -1.535,1.552 -0.549,1.86Z"/><path d="M63.316,5.855l3.734,4.959c0.584,0.791 2.076,-0.387 1.479,-1.196l-3.734,-4.959c-0.661,-0.872 -2.116,0.358 -1.479,1.196Z"/><path d="M69.507,2.834l0.315,6.283c0.04,0.995 1.914,0.917 1.873,-0.101l-0.315,-6.283c-0.06,-1.106 -1.932,-0.964 -1.873,0.101Z"/><path d="M76.248,4.041l-3.217,5.334c-0.518,0.839 1.061,1.89 1.59,1.031l3.217,-5.334c0.564,-0.941 -1.048,-1.938 -1.59,-1.031Z"/><path d="M81.103,9.039l-5.586,2.456c-0.888,0.379 -0.177,2.178 0.732,1.79l5.586,-2.456c0.983,-0.436 0.214,-2.211 -0.732,-1.79Z"/></g></svg>