<?xml version="1.0" encoding="UTF-8" standalone="no"?><!DOCTYPE svg PUBLIC "-//W3C//DTD SVG 1.1//EN" "http://www.w3.org/Graphics/SVG/1.1/DTD/svg11.dtd"><svg width="100%" height="100%" viewBox="0 0 148 148" version="1.1" xmlns="http://www.w3.org/2000/svg" xmlns:xlink="http://www.w3.org/1999/xlink" xml:space="preserve" xmlns:serif="http://www.serif.com/" style="fill-rule:evenodd;clip-rule:evenodd;stroke-linejoin:round;stroke-miterlimit:2;"><rect x="0" y="0" width="147.194" height="147.194" style="fill:none;"/><g id="Flugzeug"><path d="M60.014,35.494c0,-38.347 27.166,-38.41 27.166,-0.063c-0,38.348 -6.086,105.061 -13.583,105.061c-7.497,-0 -13.583,-66.65 -13.583,-104.998Z"/><path d="M141.52,86.897l-67.847,-13.333l-67.999,13.333c0,-0 -0.562,-14.616 4.303,-18.164c11.333,-8.265 63.696,-31.426 63.696,-31.426c-0,-0 52.236,23.161 63.544,31.426c4.862,3.553 4.303,18.164 4.303,18.164Z"/><path d="M108.69,134.835l-35.054,-7l-35.132,7c0,0 -0.29,-7.674 2.223,-9.537c5.856,-4.34 32.909,-16.502 32.909,-16.502c0,0 26.989,12.162 32.831,16.502c2.512,1.866 2.223,9.537 2.223,9.537Z"/></g></svg>