<?xml version="1.0" encoding="UTF-8" standalone="no"?><!DOCTYPE svg PUBLIC "-//W3C//DTD SVG 1.1//EN" "http://www.w3.org/Graphics/SVG/1.1/DTD/svg11.dtd"><svg width="100%" height="100%" viewBox="0 0 250 250" version="1.1" xmlns="http://www.w3.org/2000/svg" xmlns:xlink="http://www.w3.org/1999/xlink" xml:space="preserve" xmlns:serif="http://www.serif.com/" style="fill-rule:evenodd;clip-rule:evenodd;stroke-linecap:round;stroke-linejoin:round;stroke-miterlimit:1.5;"><g id="Windrad-mit-Licht-final-Version" serif:id="Windrad mit Licht final Version"><path d="M135.968,58.181l0,1.942c0,0.501 -0.407,0.907 -0.907,0.907l-1.815,0c-0.501,0 -0.908,-0.406 -0.908,-0.907l0,-1.942c0,-0.501 0.407,-0.908 0.908,-0.908l1.815,0c0.5,0 0.907,0.407 0.907,0.908Z" style="stroke:#000;stroke-width:0.92px;"/><path d="M135.566,67.199l3.931,171.301l-11.182,-0l3.562,-171.301l3.689,0Z" style="stroke:#000;stroke-width:0.92px;"/><path d="M133.853,68.052c2.279,-0.779 -69.639,-22.346 -77.479,-23.711c-0.523,-0.091 -0.793,0.17 -0.85,0.231c-0.161,0.174 -0.755,1.15 2.833,2.913c41.654,20.472 47.65,22.73 50.689,22.891c3.12,0.166 20.428,-0.826 24.807,-2.324Z" style="stroke:#000;stroke-width:0.92px;"/><path d="M134.238,67.237c-1.815,-1.584 15.467,71.483 18.205,78.955c0.183,0.498 0.544,0.601 0.625,0.62c0.231,0.053 1.374,0.079 1.107,-3.91c-3.098,-46.31 -4.141,-52.631 -5.52,-55.343c-1.417,-2.785 -10.931,-17.278 -14.417,-20.322Z" style="stroke:#000;stroke-width:0.92px;"/><path d="M134.222,67.153c-0.465,2.364 54.172,-49.136 59.274,-55.244c0.34,-0.407 0.249,-0.771 0.224,-0.851c-0.069,-0.227 -0.618,-1.229 -3.939,0.997c-38.556,25.837 -43.509,29.901 -45.168,32.452c-1.704,2.619 -9.498,18.105 -10.391,22.646Z" style="stroke:#000;stroke-width:0.92px;"/><path d="M141.219,69.363c1.193,-3.9 -1.003,-8.035 -4.903,-9.229c-3.899,-1.194 -8.034,1.003 -9.228,4.902c-1.194,3.9 1.002,8.035 4.902,9.229c3.899,1.194 8.035,-1.003 9.229,-4.902Z" style="stroke:#000;stroke-width:0.92px;"/><g><path d="M161.419,54.838l-14.027,5.519c-2.212,0.897 -3.93,-3.585 -1.667,-4.501l14.026,-5.52c2.474,-0.963 4.051,3.577 1.668,4.502Z"/><path d="M151.992,40.199l-8.396,12.875c-1.31,2.052 -5.193,-0.611 -3.852,-2.709l8.396,-12.875c1.486,-2.263 5.285,0.532 3.852,2.709Z"/><path d="M136.194,33.77l0.272,15.574c0.066,2.466 -4.577,2.585 -4.644,0.063l-0.271,-15.573c-0.039,-2.743 4.609,-2.705 4.643,-0.064Z"/><path d="M119.741,37.878l8.84,12.639c1.418,1.988 -2.306,4.846 -3.756,2.813l-8.84,-12.639c-1.55,-2.232 2.266,-4.964 3.756,-2.813Z"/><path d="M108.581,51.035l14.212,5.134c2.258,0.79 0.8,5.354 -1.51,4.545l-14.211,-5.134c-2.5,-0.912 -0.897,-5.426 1.509,-4.545Z"/></g></g><rect x="0" y="0" width="249.137" height="249.137" style="fill:none;"/></svg>