<?xml version="1.0" encoding="UTF-8" standalone="no"?><!DOCTYPE svg PUBLIC "-//W3C//DTD SVG 1.1//EN" "http://www.w3.org/Graphics/SVG/1.1/DTD/svg11.dtd"><svg width="100%" height="100%" viewBox="0 0 250 250" version="1.1" xmlns="http://www.w3.org/2000/svg" xmlns:xlink="http://www.w3.org/1999/xlink" xml:space="preserve" xmlns:serif="http://www.serif.com/" style="fill-rule:evenodd;clip-rule:evenodd;stroke-linecap:round;stroke-linejoin:round;stroke-miterlimit:1.5;"><g id="Windrad"><path d="M134.939,70.473l3.706,161.525l-10.544,0l3.359,-161.525l3.479,0Z" style="stroke:#000;stroke-width:0.85px;"/><path d="M133.323,71.277c2.149,-0.735 -65.665,-21.071 -73.058,-22.358c-0.493,-0.086 -0.747,0.161 -0.801,0.218c-0.152,0.164 -0.712,1.084 2.671,2.747c39.277,19.304 44.931,21.433 47.796,21.585c2.942,0.156 19.263,-0.78 23.392,-2.192Z" style="stroke:#000;stroke-width:0.85px;"/><path d="M133.686,70.509c-1.711,-1.494 14.585,67.403 17.166,74.449c0.173,0.47 0.513,0.567 0.59,0.584c0.218,0.05 1.295,0.075 1.043,-3.686c-2.921,-43.667 -3.904,-49.628 -5.205,-52.185c-1.336,-2.626 -10.306,-16.292 -13.594,-19.162Z" style="stroke:#000;stroke-width:0.85px;"/><path d="M133.671,70.43c-0.438,2.228 51.081,-46.333 55.892,-52.091c0.32,-0.384 0.234,-0.728 0.211,-0.803c-0.066,-0.214 -0.583,-1.159 -3.714,0.939c-36.356,24.364 -41.027,28.196 -42.591,30.601c-1.607,2.47 -8.956,17.071 -9.798,21.354Z" style="stroke:#000;stroke-width:0.85px;"/><path d="M140.268,72.513c1.126,-3.677 -0.945,-7.576 -4.622,-8.702c-3.677,-1.126 -7.576,0.946 -8.702,4.622c-1.126,3.677 0.945,7.577 4.622,8.702c3.677,1.126 7.577,-0.945 8.702,-4.622Z" style="stroke:#000;stroke-width:0.85px;"/></g><rect x="0" y="0" width="249.137" height="249.137" style="fill:none;"/></svg>